<svg width="61" height="61" viewBox="0 0 61 61" fill="none" xmlns="http://www.w3.org/2000/svg">
<path d="M10.6821 33.8282C11.2872 33.0718 14.918 27.3231 22.0282 27.3231C29.5923 27.3231 31.559 33.8282 39.4256 33.8282C45.9308 33.8282 49.4103 28.382 50.1667 27.3231M10.6821 43.5103C11.2872 42.7539 14.918 37.0051 22.0282 37.0051C29.5923 37.0051 31.559 43.5103 39.4256 43.5103C45.9308 43.5103 49.4103 38.0641 50.1667 37.0051M10.6821 24.1462C11.2872 23.3897 14.918 17.641 22.0282 17.641C29.5923 17.641 31.559 24.1462 39.4256 24.1462C45.9308 24.1462 49.4103 18.7 50.1667 17.641M60 30.5C60 46.7924 46.7924 60 30.5 60C14.2076 60 1 46.7924 1 30.5C1 14.2076 14.2076 1 30.5 1C46.7924 1 60 14.2076 60 30.5Z" stroke="#80D493" stroke-width="2"/>
</svg>
